<svg xmlns="http://www.w3.org/2000/svg" width="20" height="20" viewBox="0 0 20 20">
    <title>  error </title>
    <desc>  Created with Sketch. </desc>
    <g fill="white">
    <rect x="-2" y="-2" width="24" height="24"/>
    <path d="M10 0C4.5 0 0 4.5 0 10 0 15.5 4.5 20 10 20 15.5 20 20 15.5 20 10 20 4.5 15.5 0 10 0ZM10 11C9.4 11 9 10.5 9 10L9 6C9 5.5 9.4 5 10 5 10.6 5 11 5.5 11 6L11 10C11 10.5 10.6 11 10 11ZM11 15L9 15 9 13 11 13 11 15Z" fill="#1D1D1D"/>
    </g>
</svg>
                               